<svg width="81" height="80" viewBox="0 0 81 80" fill="none" xmlns="http://www.w3.org/2000/svg">
<circle cx="40.2754" cy="40" r="40" fill="#F3FBF8"/>
<g clip-path="url(#clip0_16109_49)">
<path d="M58.1525 32.3417H51.3693C50.1988 32.3417 49.2464 33.2945 49.2464 34.4658V42.2731H46.7092C46.8502 41.7605 46.9025 41.1559 46.8682 40.4523V40.4523C46.8131 37.4789 46.2736 34.973 45.2645 33.0041C44.4809 31.4754 43.5664 30.5589 42.7817 30.011C43.7027 29.0641 44.2352 27.717 44.2352 26.1633C44.2352 23.3679 42.0053 21.0938 39.2645 21.0938C36.5236 21.0938 34.2937 23.3679 34.2937 26.1633C34.2937 26.487 34.556 26.7492 34.8796 26.7492H35.2777C35.2411 26.9703 35.2216 27.1956 35.2216 27.4245C35.2216 29.3945 36.6292 31.0409 38.4903 31.4099C38.2952 32.1343 38.1983 32.9884 38.1987 33.9587L36.7373 35.2157L33.1814 35.5033L29.0796 34.1473C28.7037 34.0223 28.2776 33.8811 27.9079 34.1477C27.5436 34.4105 27.5436 34.8708 27.5436 35.022V38.0716C27.5436 38.3952 27.8059 38.6575 28.1295 38.6575H28.8271L27.7572 42.3547C27.6673 42.6655 27.8463 42.9905 28.1572 43.0804C28.4682 43.1708 28.793 42.9912 28.883 42.6805L30.0472 38.6575H31.713C29.6411 44.9756 30.8233 49.193 32.6404 53.461H31.5871L27.2002 48.5559L28.1278 45.3512C28.2178 45.0403 28.0388 44.7154 27.7279 44.6255C27.417 44.5355 27.0921 44.7146 27.0021 45.0254L26.1148 48.0908C23.3706 48.045 20.9159 49.937 20.2904 52.6591C20.218 52.9745 20.4148 53.2888 20.73 53.3613L21.5618 53.5527C21.3493 55.7599 22.8028 57.8423 25.0195 58.3526C25.3562 58.4302 25.6957 58.4684 26.0329 58.4684C26.8645 58.4684 27.6814 58.2353 28.404 57.7824C29.252 57.251 29.8839 56.4698 30.2259 55.5465L30.8822 55.6975C31.0777 55.7427 31.2632 55.7656 31.4485 55.6659C31.6209 55.573 31.7355 55.4055 31.7785 55.2163C31.8198 55.0245 31.8512 54.8296 31.873 54.6329H44.1275C44.5194 57.0694 46.5924 58.906 49.0683 58.906C51.5441 58.906 53.6173 57.0694 54.0091 54.6329H54.4563C54.4563 54.6329 54.5451 54.6339 54.5653 54.6339C54.7329 54.6339 54.9749 54.6153 55.1737 54.4131C55.2731 54.312 55.3898 54.1309 55.3809 53.8434C55.3644 53.2931 55.2818 52.7615 55.1409 52.2562C55.6076 49.4227 55.1585 47.697 54.4928 46.3465C54.9137 46.0706 55.1927 45.5953 55.1927 45.0553V43.4449H58.1523C59.3229 43.4449 60.2752 42.4921 60.2752 41.3209V34.4657C60.2754 33.2945 59.3231 32.3417 58.1525 32.3417ZM27.7817 56.7896C27.0316 57.2597 26.1441 57.4091 25.2826 57.2108H25.2825C23.6967 56.8458 22.6388 55.3916 22.7159 53.8193L29.0716 55.2821C28.8086 55.9012 28.3637 56.4249 27.7817 56.7896ZM30.7136 54.4563L21.5991 52.359C22.3025 50.4329 24.1953 49.1579 26.2643 49.2676L30.7292 54.2598C30.7253 54.3257 30.7202 54.3912 30.7136 54.4563ZM39.564 44.2458C39.3939 44.6944 39.3939 45.2474 39.3939 46.013V48.2241H37.2484V45.1906C37.2484 41.7611 39.1201 41.1499 39.9601 41.0491H45.7045C45.6814 41.8274 45.5058 42.3807 45.1723 42.7319C44.7838 43.1411 44.1188 43.3405 43.1395 43.3414L41.0363 43.3436C40.2863 43.3437 39.7909 43.6471 39.564 44.2458ZM39.3939 49.3959V50.7949C39.3886 50.7949 39.3831 50.7949 39.3775 50.7949H35.2155C35.2623 50.361 35.3975 50.0252 35.6195 49.7929C35.9496 49.4474 36.4146 49.3959 36.6624 49.3959H39.3939ZM45.6787 39.8773H40.35C40.136 39.2039 39.9452 38.4666 39.7884 37.7087L41.4084 36.6572C42.2928 36.0829 42.7529 35.2714 42.6707 34.4307C42.5979 33.6855 42.0913 33.0198 41.38 32.7348C40.7305 32.4747 40.0313 32.5564 39.4134 32.9515C39.4644 32.391 39.5592 31.8907 39.6964 31.466C39.9462 31.4402 40.1942 31.3914 40.4378 31.3198C40.9337 31.2046 41.3919 31.0211 41.8055 30.7777C42.9341 31.452 45.4161 33.6388 45.6787 39.8773ZM35.5084 25.5774C35.7848 23.7052 37.3638 22.2657 39.2645 22.2657C41.3591 22.2657 43.0634 24.0142 43.0634 26.1634C43.0634 27.9113 42.2252 29.3202 40.8736 29.9402V26.8571C40.8736 26.3233 40.6693 25.6684 39.6963 25.5798C39.6787 25.5782 39.6609 25.5774 39.6432 25.5774H35.5084ZM36.3935 27.4245C36.3935 27.1933 36.4198 26.9674 36.4716 26.7493H39.6145C39.6506 26.7532 39.677 26.7574 39.6959 26.7613C39.699 26.783 39.7016 26.8142 39.7016 26.8571V30.2849C39.562 30.3055 39.4216 30.3159 39.2812 30.3159C39.2798 30.3159 39.2785 30.3159 39.2773 30.3159C37.687 30.3145 36.3935 29.018 36.3935 27.4245ZM35.6339 36.4808L37.0217 36.3685C37.1454 36.3586 37.2627 36.3096 37.3568 36.2288L39.8615 34.0745L39.8619 34.0741C40.1041 33.8654 40.3626 33.7584 40.6143 33.7584C40.7263 33.7584 40.837 33.7796 40.9443 33.8226C41.2539 33.9466 41.4738 34.23 41.5045 34.5445C41.5432 34.9404 41.2824 35.3416 40.7705 35.6741L37.9795 37.4857H35.6341V36.4808H35.6339ZM33.1577 36.6811L34.462 36.5756V37.4859H32.9463C32.7498 37.4859 32.702 37.3226 32.6963 37.1856C32.6931 37.108 32.7005 36.7186 33.1577 36.6811ZM31.7709 36.2766C31.5944 36.5659 31.512 36.9045 31.5255 37.2336C31.529 37.3188 31.5398 37.4009 31.555 37.4809C31.555 37.4826 31.5541 37.4842 31.5544 37.4858H28.7156V35.2613L31.7731 36.272C31.7722 36.2736 31.7717 36.2751 31.7709 36.2766ZM32.9496 38.6577H38.1528C38.266 38.6577 38.3769 38.6248 38.4718 38.5632L38.737 38.391C38.8646 38.9549 39.0099 39.5037 39.1682 40.022C37.9732 40.3747 36.0764 41.5146 36.0764 45.1905V48.2828C35.6653 48.3658 35.179 48.5575 34.7722 48.9832C34.3434 49.432 34.0984 50.04 34.0397 50.7948H32.8577C31.6666 47.3622 31.2136 43.7094 32.9496 38.6577ZM33.9154 53.4591C33.6988 52.961 33.4901 52.4648 33.2935 51.9668H39.3774C40.1659 51.9668 40.5657 51.6078 40.5657 50.8999V48.8099V46.5988H45.1906C45.5143 46.5988 45.7766 46.3366 45.7766 46.0129C45.7766 45.6892 45.5143 45.427 45.1906 45.427H40.5699C40.5774 45.0941 40.5988 44.822 40.6598 44.6612C40.6894 44.583 40.715 44.5155 41.0368 44.5155L43.1405 44.5133C44.4581 44.512 45.4007 44.1933 46.0222 43.5387C46.0509 43.5084 46.0781 43.4766 46.1054 43.445H49.8324H54.0211V45.0554C54.0211 45.2568 53.8513 45.427 53.6504 45.427H47.8172C47.4935 45.427 47.2313 45.6892 47.2313 46.0129C47.2313 46.3366 47.4935 46.5988 47.8172 46.5988H53.3061C53.7692 47.4584 54.1858 48.528 54.161 50.218C53.0018 48.6077 51.1252 47.5723 48.9953 47.5723C47.2848 47.5723 45.6798 48.2433 44.4759 49.4616C43.4075 50.5427 42.7659 51.9457 42.6338 53.461L33.9154 53.4591ZM49.0684 57.7343C47.2366 57.7343 45.6918 56.4145 45.318 54.633H52.8187C52.4448 56.4144 50.9 57.7343 49.0684 57.7343ZM53.4843 53.4612H44.6526H43.8108C44.0984 50.8117 46.3137 48.7442 48.9953 48.7442C51.3496 48.7442 53.3267 50.2966 53.9815 52.4698C53.9836 52.4767 53.9857 52.4836 53.988 52.4904C54.0806 52.8022 54.146 53.1267 54.1814 53.4612H53.4843ZM59.1035 41.3209C59.1035 41.846 58.6769 42.2731 58.1525 42.2731H50.4183V39.2473H59.1035V41.3209ZM59.1035 38.0754H50.4183V36.8292H59.1035V38.0754ZM59.1035 35.6573H50.4183V34.4658C50.4183 33.9407 50.8449 33.5136 51.3693 33.5136H58.1525C58.6769 33.5136 59.1035 33.9408 59.1035 34.4658V35.6573Z" fill="#09A66D"/>
</g>
<defs>
<clipPath id="clip0_16109_49">
<rect width="40" height="40" fill="white" transform="translate(20.2754 20)"/>
</clipPath>
</defs>
</svg>
