<svg width="956" height="544" viewBox="0 0 956 544" fill="none" xmlns="http://www.w3.org/2000/svg">
<g filter="url(#filter0_d_32_75)">
<path d="M359.074 110.341C348.214 70.5195 296.633 37.9334 261.912 21.5072C219.62 1.49949 160.334 -7.3276 117.557 16.2635C88.2462 32.4283 62.0513 57.2855 40.907 82.8889C25.0717 102.064 1.3783 133.444 7.44009 161.235C15.2425 197.006 64.8251 211.41 92.7268 220.766C167.984 246.002 246.552 260.946 322.523 283.999C356.073 294.18 407.555 301.584 422.152 339.366C426.737 351.233 433.174 373.655 429.401 386.405C420.875 415.217 366.487 427.961 345.656 434.986C293.401 452.607 239.636 466.495 184.799 473.079C173.082 474.486 161.273 475.058 149.482 475.547C139.515 475.96 115.107 479.993 119.87 471.229C130.155 452.305 184.929 434.535 201.764 426.812C254.984 402.397 310.53 383.932 366.785 367.897C413.595 354.555 460.866 342.749 509.29 337.052C533.503 334.204 565.951 330.079 590.104 338.286C623.22 349.539 621.13 401.924 606.76 426.195C568.835 490.252 490.863 523.056 419.839 531.376C384.614 535.503 346.689 534.804 312.035 526.75C308.314 525.885 274.751 522.098 285.354 504.233C298.382 482.282 356.967 452.873 368.945 446.398C444.24 405.698 522.941 371.323 601.825 338.286C642.552 321.229 683.93 303.573 726.439 291.247C785.302 274.181 859.896 290.171 907.5 328.57C938.842 353.851 960.64 406.185 945.593 446.09C941.691 456.44 933.888 465.676 922.614 465.676" stroke="#ECFFDC" stroke-width="3" stroke-linecap="round" shape-rendering="crispEdges"/>
</g>
<defs>
<filter id="filter0_d_32_75" x="0.969482" y="0.619873" width="954.996" height="542.733" filterUnits="userSpaceOnUse" color-interpolation-filters="sRGB">
<feFlood flood-opacity="0" result="BackgroundImageFix"/>
<feColorMatrix in="SourceAlpha" type="matrix" values="0 0 0 0 0 0 0 0 0 0 0 0 0 0 0 0 0 0 127 0" result="hardAlpha"/>
<feOffset dy="4"/>
<feGaussianBlur stdDeviation="2"/>
<feComposite in2="hardAlpha" operator="out"/>
<feColorMatrix type="matrix" values="0 0 0 0 0 0 0 0 0 0 0 0 0 0 0 0 0 0 0.25 0"/>
<feBlend mode="normal" in2="BackgroundImageFix" result="effect1_dropShadow_32_75"/>
<feBlend mode="normal" in="SourceGraphic" in2="effect1_dropShadow_32_75" result="shape"/>
</filter>
</defs>
</svg>
