<svg width="81" height="80" viewBox="0 0 81 80" fill="none" xmlns="http://www.w3.org/2000/svg">
<circle cx="40.2754" cy="40" r="40" fill="white"/>
<g clip-path="url(#clip0_32_247)">
<path d="M34.9613 47.8216H45.3525C45.6762 47.8216 45.9385 47.5593 45.9385 47.2357C45.9385 46.9121 45.6762 46.6498 45.3525 46.6498H34.9613C34.6378 46.6498 34.3754 46.9121 34.3754 47.2357C34.3754 47.5593 34.6378 47.8216 34.9613 47.8216ZM36.7974 34.3792H43.7538C44.2843 34.3792 44.7442 34.0381 44.8983 33.5305L46.3583 28.7201C46.4695 28.3539 46.4024 27.9676 46.1745 27.6602C45.9466 27.3529 45.5964 27.1766 45.2138 27.1766H44.6941L43.6321 24.5218C43.388 23.9105 42.8049 23.5156 42.1467 23.5156H38.4045C37.7463 23.5156 37.1632 23.9105 36.9191 24.5215L35.857 27.1766H35.3374C34.9547 27.1766 34.6045 27.3528 34.3766 27.6602C34.1486 27.9677 34.0817 28.3539 34.1928 28.7201L35.6528 33.5305C35.8069 34.0381 36.2668 34.3792 36.7974 34.3792ZM35.3179 28.3582C35.3356 28.3343 38.5049 28.3562 38.5276 28.3484C38.8512 28.3484 39.1135 28.0861 39.1135 27.7625C39.1135 27.4389 38.8512 27.1766 38.5276 27.1766H37.1192L38.0071 24.9566C38.0724 24.7931 38.2284 24.6875 38.4045 24.6875H42.1467C42.3228 24.6875 42.4787 24.7931 42.544 24.9567L43.432 27.1766H41.2619C40.9382 27.1766 40.676 27.4389 40.676 27.7625C40.676 28.0861 40.9382 28.3484 41.2619 28.3484C41.2816 28.3484 45.2182 28.338 45.2332 28.3582C45.2506 28.3817 43.7769 33.1655 43.7769 33.1902C43.7769 33.2423 36.7773 33.2005 36.7742 33.1902C36.7667 33.1656 35.3005 28.3816 35.3179 28.3582ZM34.9613 53.667C34.6378 53.667 34.3754 53.9293 34.3754 54.2529C34.3754 54.5765 34.6378 54.8388 34.9613 54.8388H45.3525C45.6762 54.8388 45.9385 54.5765 45.9385 54.2529C45.9385 53.9293 45.6762 53.667 45.3525 53.667H34.9613ZM50.626 51.9091C50.626 51.5855 50.3637 51.3232 50.04 51.3232H34.9613C34.6378 51.3232 34.3754 51.5855 34.3754 51.9091C34.3754 52.2327 34.6378 52.4951 34.9613 52.4951H50.04C50.3637 52.4951 50.626 52.2327 50.626 51.9091ZM53.5556 45.6489C53.8793 45.6489 54.1416 45.3866 54.1416 45.063V22.9297C54.1416 21.3142 52.8274 20 51.2119 20H29.3392C27.7238 20 26.4095 21.3142 26.4095 22.9297V57.0703C26.4095 58.6858 27.7238 60 29.3392 60H51.212C52.8274 60 54.1417 58.6858 54.1417 57.0703V47.7973C54.1417 47.4737 53.8794 47.2114 53.5557 47.2114C53.2321 47.2114 52.9698 47.4737 52.9698 47.7973V57.0703C52.9698 58.0396 52.1812 58.8281 51.212 58.8281H29.3392C28.3699 58.8281 27.5814 58.0396 27.5814 57.0703V22.9297C27.5814 21.9604 28.3699 21.1719 29.3392 21.1719H51.212C52.1812 21.1719 52.9698 21.9604 52.9698 22.9297V45.063C52.9697 45.3866 53.2321 45.6489 53.5556 45.6489ZM32.6449 48.271C32.3564 48.2746 32.0538 48.2774 31.7765 48.2788C31.9735 48.0113 32.2228 47.6663 32.5335 47.2223C32.806 46.833 32.9988 46.4805 33.049 46.1144C33.0572 46.0544 33.073 45.9466 33.073 45.8894C33.073 45.0163 32.3628 44.3061 31.4897 44.3061C30.7349 44.3061 30.0815 44.8432 29.9361 45.5831C29.8738 45.9006 30.0806 46.2087 30.3981 46.271C30.7157 46.3334 31.0237 46.1266 31.086 45.809C31.1237 45.6171 31.2935 45.478 31.4897 45.478C31.7067 45.478 31.8851 45.6469 31.9001 45.8602C31.9149 46.0707 31.8075 46.2158 31.5734 46.5503C30.9578 47.4299 30.5905 47.9108 30.3932 48.1691C30.0488 48.6201 29.8842 49.2079 30.4808 49.4067C30.5578 49.4323 32.1045 49.4498 32.6596 49.4428C32.9832 49.4388 33.2422 49.1731 33.2381 48.8495C33.2341 48.5259 32.9657 48.2648 32.6449 48.271ZM50.04 44.306H34.9613C34.6378 44.306 34.3754 44.5684 34.3754 44.892C34.3754 45.2155 34.6378 45.4779 34.9613 45.4779H50.04C50.3637 45.4779 50.626 45.2155 50.626 44.892C50.626 44.5684 50.3637 44.306 50.04 44.306ZM31.5817 51.3232C30.8268 51.3232 30.1735 51.8603 30.0281 52.6002C29.9657 52.9177 30.1725 53.2258 30.4901 53.2881C30.8074 53.3504 31.1156 53.1437 31.178 52.8261C31.2156 52.6342 31.3854 52.4951 31.5817 52.4951C31.8085 52.4951 31.9931 52.6796 31.9931 52.9065C31.9931 53.1334 31.8085 53.3179 31.5817 53.3179C31.2581 53.3179 30.9957 53.5802 30.9957 53.9038C30.9957 54.2274 31.2581 54.4898 31.5817 54.4898C31.8085 54.4898 31.9931 54.6743 31.9931 54.9012C31.9931 55.128 31.8085 55.3126 31.5817 55.3126C31.3775 55.3126 31.2024 55.1607 31.1742 54.959C31.1716 54.9401 31.1702 54.9206 31.1702 54.9012C31.1702 54.5776 30.9079 54.3152 30.5843 54.3152C30.2607 54.3152 29.9984 54.5776 29.9984 54.9012C29.9984 55.7618 30.7125 56.4845 31.5817 56.4845C32.4547 56.4845 33.1649 55.7742 33.1649 54.9012C33.1649 54.5234 33.0315 54.1763 32.8098 53.9038C33.0315 53.6313 33.1649 53.2843 33.1649 52.9065C33.1649 52.0334 32.4547 51.3232 31.5817 51.3232ZM31.5817 42.3889C31.9053 42.3889 32.1676 42.1266 32.1676 41.803V37.9053C32.1676 37.5817 31.9053 37.3194 31.5817 37.3194H30.7485C30.4249 37.3194 30.1626 37.5817 30.1626 37.9053C30.1626 38.2289 30.4249 38.4913 30.7485 38.4913H30.9957V41.803C30.9957 42.1266 31.2581 42.3889 31.5817 42.3889ZM34.9613 40.835H45.3525C45.6762 40.835 45.9385 40.5727 45.9385 40.2491C45.9385 39.9255 45.6762 39.6631 45.3525 39.6631H34.9613C34.6378 39.6631 34.3754 39.9255 34.3754 40.2491C34.3754 40.5727 34.6378 40.835 34.9613 40.835ZM50.04 37.3194H34.9613C34.6378 37.3194 34.3754 37.5817 34.3754 37.9053C34.3754 38.2289 34.6378 38.4913 34.9613 38.4913H50.04C50.3637 38.4913 50.626 38.2289 50.626 37.9053C50.626 37.5817 50.3637 37.3194 50.04 37.3194Z" fill="#09A66D"/>
</g>
<defs>
<clipPath id="clip0_32_247">
<rect width="40" height="40" fill="white" transform="translate(20.2754 20)"/>
</clipPath>
</defs>
</svg>
