<svg width="81" height="80" viewBox="0 0 81 80" fill="none" xmlns="http://www.w3.org/2000/svg">
<circle cx="40.2754" cy="40" r="40" fill="#F3FBF8"/>
<g clip-path="url(#clip0_16109_51)">
<path d="M23.3124 31.657H29.4919C29.8155 31.657 30.0778 31.3948 30.0778 31.0711C30.0778 30.7474 29.8155 30.4852 29.4919 30.4852H23.3124C22.9888 30.4852 22.7264 30.7474 22.7264 31.0711C22.7264 31.3948 22.9887 31.657 23.3124 31.657Z" fill="#09A66D"/>
<path d="M29.2802 34.4779H26.8391C26.5155 34.4779 26.2532 34.7402 26.2532 35.0638C26.2532 35.3875 26.5155 35.6498 26.8391 35.6498H29.2802C29.6038 35.6498 29.8661 35.3875 29.8661 35.0638C29.8661 34.7402 29.6038 34.4779 29.2802 34.4779Z" fill="#09A66D"/>
<path d="M20.8613 38.5411H26.8388C27.1624 38.5411 27.4248 38.2789 27.4248 37.9552C27.4248 37.6315 27.1624 37.3693 26.8388 37.3693H20.8613C20.5377 37.3693 20.2754 37.6315 20.2754 37.9552C20.2754 38.2789 20.5377 38.5411 20.8613 38.5411Z" fill="#09A66D"/>
<path d="M30.0778 48.9288C30.0778 48.6052 29.8155 48.3429 29.4919 48.3429H23.3124C22.9888 48.3429 22.7264 48.6052 22.7264 48.9288C22.7264 49.2525 22.9888 49.5148 23.3124 49.5148H29.4919C29.8155 49.5148 30.0778 49.2525 30.0778 48.9288Z" fill="#09A66D"/>
<path d="M29.2802 44.3502H26.8391C26.5155 44.3502 26.2532 44.6125 26.2532 44.9362C26.2532 45.2598 26.5155 45.5221 26.8391 45.5221H29.2802C29.6038 45.5221 29.8661 45.2598 29.8661 44.9362C29.8661 44.6125 29.6038 44.3502 29.2802 44.3502Z" fill="#09A66D"/>
<path d="M27.4248 42.0447C27.4248 41.7211 27.1624 41.4588 26.8388 41.4588H20.8613C20.5377 41.4588 20.2754 41.7211 20.2754 42.0447C20.2754 42.3684 20.5377 42.6307 20.8613 42.6307H26.8388C27.1624 42.6307 27.4248 42.3684 27.4248 42.0447Z" fill="#09A66D"/>
<path d="M45.2385 32.9555C45.5622 32.9555 45.8245 32.6932 45.8245 32.3695V31.4752C45.8245 31.1515 45.5622 30.8892 45.2385 30.8892C44.9149 30.8892 44.6526 31.1515 44.6526 31.4752V32.3695C44.6526 32.6932 44.9149 32.9555 45.2385 32.9555Z" fill="#09A66D"/>
<path d="M51.6812 33.5577C51.4523 33.3289 51.0813 33.3289 50.8525 33.5577L50.2201 34.1901C49.9913 34.419 49.9913 34.7899 50.2201 35.0188C50.4491 35.2476 50.8199 35.2475 51.0487 35.0188L51.6812 34.3863C51.9099 34.1575 51.9099 33.7866 51.6812 33.5577Z" fill="#09A66D"/>
<path d="M52.8684 39.4141C52.5447 39.4141 52.2825 39.6763 52.2825 40C52.2825 40.3237 52.5447 40.5859 52.8684 40.5859H53.7627C54.0864 40.5859 54.3486 40.3237 54.3486 40C54.3486 39.6763 54.0864 39.4141 53.7627 39.4141H52.8684Z" fill="#09A66D"/>
<path d="M51.0488 44.9811C50.8199 44.7524 50.4489 44.7524 50.2201 44.9811C49.9913 45.21 49.9913 45.581 50.2201 45.8098L50.8525 46.4422C51.0815 46.6711 51.4524 46.671 51.6812 46.4422C51.91 46.2133 51.91 45.8424 51.6812 45.6136L51.0488 44.9811Z" fill="#09A66D"/>
<path d="M44.6526 47.6304V48.5247C44.6526 48.8484 44.9149 49.1107 45.2385 49.1107C45.5622 49.1107 45.8245 48.8484 45.8245 48.5247V47.6304C45.8245 47.3068 45.5622 47.0445 45.2385 47.0445C44.9149 47.0445 44.6526 47.3068 44.6526 47.6304Z" fill="#09A66D"/>
<path d="M39.4288 44.9811L38.7964 45.6136C38.5675 45.8425 38.5675 46.2134 38.7964 46.4422C39.0253 46.6711 39.3962 46.671 39.625 46.4422L40.2574 45.8098C40.4862 45.5809 40.4862 45.21 40.2574 44.9811C40.0286 44.7524 39.6576 44.7524 39.4288 44.9811Z" fill="#09A66D"/>
<path d="M36.7135 39.4141C36.3899 39.4141 36.1276 39.6763 36.1276 40C36.1276 40.3237 36.3899 40.5859 36.7135 40.5859H37.6079C37.9315 40.5859 38.1938 40.3237 38.1938 40C38.1938 39.6763 37.9315 39.4141 37.6079 39.4141H36.7135Z" fill="#09A66D"/>
<path d="M40.2575 34.1901L39.6251 33.5577C39.3963 33.3289 39.0252 33.3289 38.7965 33.5577C38.5677 33.7866 38.5677 34.1575 38.7965 34.3863L39.4289 35.0188C39.6578 35.2476 40.0288 35.2475 40.2575 35.0188C40.4863 34.7899 40.4863 34.419 40.2575 34.1901Z" fill="#09A66D"/>
<path d="M48.3893 40C48.3893 39.6764 48.127 39.4141 47.8034 39.4141H45.8245V35.0638C45.8245 34.7401 45.5622 34.4778 45.2385 34.4778C44.9149 34.4778 44.6526 34.7401 44.6526 35.0638V40C44.6526 40.3237 44.9149 40.586 45.2385 40.586H47.8034C48.127 40.586 48.3893 40.3237 48.3893 40Z" fill="#09A66D"/>
<path d="M56.3489 39.9033C56.6719 39.8837 56.9178 39.6059 56.8982 39.283C56.5255 33.1343 51.4039 28.3178 45.2385 28.3178C38.7969 28.3178 33.5563 33.5584 33.5563 40.0001C33.5563 46.4416 38.7969 51.6823 45.2385 51.6823C51.0095 51.6823 55.9338 47.454 56.7904 41.7481C56.8385 41.4281 56.618 41.1298 56.2979 41.0817C55.9787 41.0338 55.6796 41.2541 55.6315 41.5742C54.862 46.7003 50.4357 50.5105 45.2385 50.5105C39.4431 50.5105 34.7281 45.7955 34.7281 40.0002C34.7281 34.2048 39.4431 29.4898 45.2385 29.4898C50.7854 29.4898 55.3932 33.8227 55.7285 39.3541C55.748 39.6769 56.0255 39.922 56.3489 39.9033Z" fill="#09A66D"/>
<path d="M45.2389 24.9632C43.1779 24.9632 41.1586 25.3908 39.3 26.1904H28.9618C28.6382 26.1904 28.3759 26.4526 28.3759 26.7763C28.3759 27.1 28.6382 27.3623 28.9618 27.3623H37.0956C35.9959 28.0701 34.9834 28.9238 34.0908 29.9094C33.8736 30.1492 33.8919 30.5198 34.1317 30.737C34.3716 30.9543 34.742 30.9359 34.9594 30.6961C37.5845 27.7975 41.3313 26.1351 45.2389 26.1351C52.8841 26.1351 59.1039 32.3548 59.1039 40C59.1039 47.6451 52.8841 53.8649 45.2389 53.8649C37.5937 53.8649 31.374 47.6452 31.374 40C31.374 37.3228 32.1387 34.7244 33.5855 32.4855C33.7611 32.2137 33.6831 31.851 33.4113 31.6754C33.1395 31.4998 32.7769 31.5776 32.6012 31.8495C31.0316 34.2783 30.2021 37.0966 30.2021 40C30.2021 45.2942 32.9526 49.9577 37.0994 52.6377H28.9619C28.6383 52.6377 28.3759 52.9 28.3759 53.2237C28.3759 53.5473 28.6383 53.8096 28.9619 53.8096H39.2919C41.1169 54.5986 43.1276 55.0368 45.239 55.0368C53.5302 55.0368 60.2758 48.2913 60.2758 40C60.2758 31.7087 53.5302 24.9632 45.2389 24.9632Z" fill="#09A66D"/>
</g>
<defs>
<clipPath id="clip0_16109_51">
<rect width="40" height="40" fill="white" transform="translate(20.2754 20)"/>
</clipPath>
</defs>
</svg>
